<svg xmlns="http://www.w3.org/2000/svg" version="1.1" xmlns:xlink="http://www.w3.org/1999/xlink" viewBox="0 0 200 200"><rect width="200" height="200" fill="url('#gradient')"></rect><defs><linearGradient id="gradient" gradientTransform="rotate(45 0.5 0.5)"><stop offset="0%" stop-color="#0079b5"></stop><stop offset="100%" stop-color="#005fc2"></stop></linearGradient></defs><g><g fill="#ffffff" transform="matrix(8.601026598226785,0,0,8.601026598226785,6.979466311630119,160.29491331885475)" stroke="#ffffff" stroke-width="0.2"><path d="M12.24-14.22L12.24-11.57L7.97-11.57L7.97 0L4.54 0L4.54-11.57L0.35-11.57L0.35-14.22L12.24-14.22ZM11.09-4.82L11.08-5.38Q11.08-6.96 11.70-8.20Q12.31-9.43 13.47-10.10Q14.62-10.76 16.17-10.76L16.17-10.76Q18.54-10.76 19.91-9.29Q21.28-7.82 21.28-5.29L21.28-5.29L21.28-5.18Q21.28-2.71 19.91-1.25Q18.54 0.20 16.19 0.20L16.19 0.20Q13.94 0.20 12.57-1.16Q11.20-2.51 11.09-4.82L11.09-4.82ZM14.38-5.77L14.38-5.18Q14.38-3.71 14.83-3.03Q15.29-2.34 16.19-2.34L16.19-2.34Q17.95-2.34 17.99-5.05L17.99-5.05L17.99-5.38Q17.99-8.22 16.17-8.22L16.17-8.22Q14.52-8.22 14.38-5.77L14.38-5.77Z"></path></g></g></svg>